<svg>
	<defs>
		<symbol id="vscode-icon" xmlns="http://www.w3.org/2000/svg" viewBox="0 0 48 48">
			<path fill="#29b6f6" d="M44,11.11v25.78c0,1.27-0.79,2.4-1.98,2.82l-8.82,4.14L34,33V15L33.2,4.15l8.82,4.14 C43.21,8.71,44,9.84,44,11.11z" />
			<path fill="#0277bd" d="M9,33.896L34,15V5.353c0-1.198-1.482-1.758-2.275-0.86L4.658,29.239 c-0.9,0.83-0.849,2.267,0.107,3.032c0,0,1.324,1.232,1.803,1.574C7.304,34.37,8.271,34.43,9,33.896z" />
			<path fill="#0288d1" d="M9,14.104L34,33v9.647c0,1.198-1.482,1.758-2.275,0.86L4.658,18.761 c-0.9-0.83-0.849-2.267,0.107-3.032c0,0,1.324-1.232,1.803-1.574C7.304,13.63,8.271,13.57,9,14.104z" />
		</symbol>
		<symbol id="cog-8" xmlns="http://www.w3.org/2000/svg" fill="none" viewBox="0 0 24 24" stroke-width="1.5" stroke="currentColor">
			<path stroke-linecap="round" stroke-linejoin="round" d="M10.343 3.94c.09-.542.56-.94 1.11-.94h1.093c.55 0 1.02.398 1.11.94l.149.894c.07.424.384.764.78.93.398.164.855.142 1.205-.108l.737-.527a1.125 1.125 0 0 1 1.45.12l.773.774c.39.389.44 1.002.12 1.45l-.527.737c-.25.35-.272.806-.107 1.204.165.397.505.71.93.78l.893.15c.543.09.94.559.94 1.109v1.094c0 .55-.397 1.02-.94 1.11l-.894.149c-.424.07-.764.383-.929.78-.165.398-.143.854.107 1.204l.527.738c.32.447.269 1.06-.12 1.45l-.774.773a1.125 1.125 0 0 1-1.449.12l-.738-.527c-.35-.25-.806-.272-1.203-.107-.398.165-.71.505-.781.929l-.149.894c-.09.542-.56.94-1.11.94h-1.094c-.55 0-1.019-.398-1.11-.94l-.148-.894c-.071-.424-.384-.764-.781-.93-.398-.164-.854-.142-1.204.108l-.738.527c-.447.32-1.06.269-1.45-.12l-.773-.774a1.125 1.125 0 0 1-.12-1.45l.527-.737c.25-.35.272-.806.108-1.204-.165-.397-.506-.71-.93-.78l-.894-.15c-.542-.09-.94-.56-.94-1.109v-1.094c0-.55.398-1.02.94-1.11l.894-.149c.424-.07.765-.383.93-.78.165-.398.143-.854-.108-1.204l-.526-.738a1.125 1.125 0 0 1 .12-1.45l.773-.773a1.125 1.125 0 0 1 1.45-.12l.737.527c.35.25.807.272 1.204.107.397-.165.71-.505.78-.929l.15-.894Z" />
			<path stroke-linecap="round" stroke-linejoin="round" d="M15 12a3 3 0 1 1-6 0 3 3 0 0 1 6 0Z" />
		</symbol>
		<symbol id="clipboard-document" xmlns="http://www.w3.org/2000/svg" fill="none" viewBox="0 0 24 24" stroke-width="1.5" stroke="currentColor" class="size-6">
			<path stroke-linecap="round" stroke-linejoin="round" d="M8.25 7.5V6.108c0-1.135.845-2.098 1.976-2.192.373-.03.748-.057 1.123-.08M15.75 18H18a2.25 2.25 0 0 0 2.25-2.25V6.108c0-1.135-.845-2.098-1.976-2.192a48.424 48.424 0 0 0-1.123-.08M15.75 18.75v-1.875a3.375 3.375 0 0 0-3.375-3.375h-1.5a1.125 1.125 0 0 1-1.125-1.125v-1.5A3.375 3.375 0 0 0 6.375 7.5H5.25m11.9-3.664A2.251 2.251 0 0 0 15 2.25h-1.5a2.251 2.251 0 0 0-2.15 1.586m5.8 0c.065.21.1.433.1.664v.75h-6V4.5c0-.231.035-.454.1-.664M6.75 7.5H4.875c-.621 0-1.125.504-1.125 1.125v12c0 .621.504 1.125 1.125 1.125h9.75c.621 0 1.125-.504 1.125-1.125V16.5a9 9 0 0 0-9-9Z" />
		</symbol>
		<!--
		<symbol id="magnifying-glass" xmlns="http://www.w3.org/2000/svg" fill="none" viewBox="0 0 24 24" stroke-width="1.5" stroke="currentColor">
		<path stroke-linecap="round" stroke-linejoin="round" d="m21 21-5.197-5.197m0 0A7.5 7.5 0 1 0 5.196 5.196a7.5 7.5 0 0 0 10.607 10.607Z" />
		</symbol>
		-->
		<symbol id="fingerprint" xmlns="http://www.w3.org/2000/svg" fill="none" viewBox="0 0 24 24" stroke-width="1.5" stroke="currentColor">
			<path stroke-linecap="round" stroke-linejoin="round" d="M7.864 4.243A7.5 7.5 0 0 1 19.5 10.5c0 2.92-.556 5.709-1.568 8.268M5.742 6.364A7.465 7.465 0 0 0 4.5 10.5a7.464 7.464 0 0 1-1.15 3.993m1.989 3.559A11.209 11.209 0 0 0 8.25 10.5a3.75 3.75 0 1 1 7.5 0c0 .527-.021 1.049-.064 1.565M12 10.5a14.94 14.94 0 0 1-3.6 9.75m6.633-4.596a18.666 18.666 0 0 1-2.485 5.33" />
		</symbol>
		<symbol id="code-bracket" xmlns="http://www.w3.org/2000/svg" fill="none" viewBox="0 0 24 24" stroke-width="1.5" stroke="currentColor">
			<path stroke-linecap="round" stroke-linejoin="round" d="M17.25 6.75 22.5 12l-5.25 5.25m-10.5 0L1.5 12l5.25-5.25m7.5-3-4.5 16.5" />
		</symbol>
		<symbol id="node-logo" xmlns="http://www.w3.org/2000/svg" viewBox="0 0 48 48" width="480px" height="480px">
			<path fill="#388e3c" d="M17.204 19.122l-4.907 2.715C12.113 21.938 12 22.126 12 22.329v5.433c0 .203.113.39.297.492l4.908 2.717c.183.101.41.101.593 0l4.907-2.717C22.887 28.152 23 27.965 23 27.762v-5.433c0-.203-.113-.39-.297-.492l-4.906-2.715c-.092-.051-.195-.076-.297-.076-.103 0-.205.025-.297.076M42.451 24.013l-.818.452c-.031.017-.049.048-.049.082v.906c0 .034.019.065.049.082l.818.453c.031.017.068.017.099 0l.818-.453c.03-.017.049-.048.049-.082v-.906c0-.034-.019-.065-.05-.082l-.818-.452C42.534 24.004 42.517 24 42.5 24S42.466 24.004 42.451 24.013" />
			<path fill="#37474f" d="M35.751,13.364l-2.389-1.333c-0.075-0.042-0.167-0.041-0.241,0.003 c-0.074,0.044-0.12,0.123-0.12,0.209L33,20.295l-2.203-1.219C30.705,19.025,30.602,19,30.5,19c-0.102,0-0.205,0.025-0.297,0.076 h0.001l-4.907,2.715C25.113,21.892,25,22.08,25,22.282v5.433c0,0.203,0.113,0.39,0.297,0.492l4.908,2.717 c0.183,0.101,0.41,0.101,0.593,0l4.907-2.717C35.887,28.106,36,27.918,36,27.715V13.788C36,13.612,35.904,13.45,35.751,13.364z M32.866,26.458l-2.23,1.235c-0.083,0.046-0.186,0.046-0.269,0l-2.231-1.235C28.051,26.412,28,26.326,28,26.234v-2.47 c0-0.092,0.051-0.177,0.135-0.224l2.231-1.234h-0.001c0.042-0.023,0.088-0.034,0.135-0.034c0.047,0,0.093,0.012,0.135,0.034 l2.23,1.234C32.949,23.587,33,23.673,33,23.765v2.47C33,26.326,32.949,26.412,32.866,26.458z" />
			<path fill="#2e7d32" d="M17.204,19.122L12,27.762c0,0.203,0.113,0.39,0.297,0.492l4.908,2.717 c0.183,0.101,0.41,0.101,0.593,0L23,22.329c0-0.203-0.113-0.39-0.297-0.492l-4.906-2.715c-0.092-0.051-0.195-0.076-0.297-0.076 c-0.103,0-0.205,0.025-0.297,0.076" />
			<path fill="#4caf50" d="M17.204,19.122l-4.907,2.715C12.113,21.938,12,22.126,12,22.329l5.204,8.642 c0.183,0.101,0.41,0.101,0.593,0l4.907-2.717C22.887,28.152,23,27.965,23,27.762l-5.203-8.64c-0.092-0.051-0.195-0.076-0.297-0.076 c-0.103,0-0.205,0.025-0.297,0.076" />
			<path fill="#37474f" d="M47.703 21.791l-4.906-2.715C42.705 19.025 42.602 19 42.5 19c-.102 0-.205.025-.297.076h.001l-4.907 2.715C37.114 21.892 37 22.084 37 22.294v5.411c0 .209.114.402.297.503l4.908 2.717c.184.102.409.102.593 0l2.263-1.253c.207-.115.206-.412-.002-.526l-4.924-2.687C40.052 26.412 40 26.325 40 26.231v-2.466c0-.092.05-.177.13-.221l2.235-1.236h-.001c.042-.023.088-.034.135-.034.047 0 .093.012.135.034l2.235 1.237c.08.044.13.129.13.221v2.012c0 .086.046.166.121.209.075.042.167.042.242-.001l2.398-1.393c.148-.086.24-.245.24-.417v-1.88C48 22.085 47.886 21.892 47.703 21.791zM10.703 21.791l-4.906-2.715C5.705 19.025 5.602 19 5.5 19c-.102 0-.205.025-.297.076h.001l-4.907 2.715C.114 21.892 0 22.084 0 22.294v7.465c0 .086.046.166.121.209.075.042.167.042.242-.001l2.398-1.393C2.909 28.488 3 28.329 3 28.157v-4.393c0-.092.05-.177.13-.221l2.235-1.236H5.365c.042-.023.088-.034.135-.034.047 0 .093.012.135.034l2.235 1.237C7.95 23.588 8 23.673 8 23.765v4.393c0 .172.091.331.24.417l2.398 1.393c.075.043.167.043.242.001C10.954 29.925 11 29.845 11 29.759v-7.464C11 22.085 10.886 21.892 10.703 21.791z" />
		</symbol>
		<symbol id="arrow-right" xmlns="http://www.w3.org/2000/svg" fill="none" viewBox="0 0 24 24" stroke-width="1.5" stroke="currentColor">
			<path stroke-linecap="round" stroke-linejoin="round" d="M17.25 8.25 21 12m0 0-3.75 3.75M21 12H3" />
		</symbol>
		<symbol id="newpaper" xmlns="http://www.w3.org/2000/svg" fill="none" viewBox="0 0 24 24" stroke-width="1.5" stroke="currentColor" class="size-6">
			<path stroke-linecap="round" stroke-linejoin="round" d="M12 7.5h1.5m-1.5 3h1.5m-7.5 3h7.5m-7.5 3h7.5m3-9h3.375c.621 0 1.125.504 1.125 1.125V18a2.25 2.25 0 0 1-2.25 2.25M16.5 7.5V18a2.25 2.25 0 0 0 2.25 2.25M16.5 7.5V4.875c0-.621-.504-1.125-1.125-1.125H4.125C3.504 3.75 3 4.254 3 4.875V18a2.25 2.25 0 0 0 2.25 2.25h13.5M6 7.5h3v3H6v-3Z" />
		</symbol>
		<symbol id="folder" xmlns="http://www.w3.org/2000/svg" fill="none" viewBox="0 0 24 24" stroke-width="1.5" stroke="currentColor" class="size-6">
			<path stroke-linecap="round" stroke-linejoin="round" d="M2.25 12.75V12A2.25 2.25 0 0 1 4.5 9.75h15A2.25 2.25 0 0 1 21.75 12v.75m-8.69-6.44-2.12-2.12a1.5 1.5 0 0 0-1.061-.44H4.5A2.25 2.25 0 0 0 2.25 6v12a2.25 2.25 0 0 0 2.25 2.25h15A2.25 2.25 0 0 0 21.75 18V9a2.25 2.25 0 0 0-2.25-2.25h-5.379a1.5 1.5 0 0 1-1.06-.44Z" />
		</symbol>
	</defs>
</svg>
